<svg width="20" height="20" viewBox="0 0 20 20" fill="none" xmlns="http://www.w3.org/2000/svg">
<path d="M17.7652 5.95132L17.3539 5.23749C17.0428 4.69763 16.8873 4.4277 16.6226 4.32006C16.358 4.21243 16.0587 4.29736 15.4601 4.46723L14.4432 4.75365C14.061 4.84178 13.6601 4.79178 13.3111 4.61249L13.0304 4.45051C12.7311 4.25886 12.501 3.97627 12.3736 3.64412L12.0953 2.81296C11.9123 2.26294 11.8208 1.98794 11.603 1.83064C11.3852 1.67334 11.0959 1.67334 10.5172 1.67334L9.58826 1.67334C9.00963 1.67334 8.72032 1.67334 8.5025 1.83064C8.28469 1.98794 8.1932 2.26294 8.01022 2.81296L7.73193 3.64412C7.60452 3.97627 7.37436 4.25886 7.07512 4.45051L6.79439 4.61249C6.44543 4.79178 6.04448 4.84178 5.6623 4.75365L4.64544 4.46723C4.04683 4.29736 3.74752 4.21243 3.48288 4.32006C3.21823 4.4277 3.06269 4.69763 2.75161 5.23749L2.34029 5.95132C2.0487 6.45737 1.9029 6.71039 1.9312 6.97974C1.9595 7.24909 2.15468 7.46614 2.54503 7.90026L3.40424 8.86085C3.61423 9.1267 3.76332 9.59001 3.76332 10.0065C3.76332 10.4233 3.61428 10.8865 3.40426 11.1524L2.54504 12.113C2.15468 12.5471 1.9595 12.7642 1.9312 13.0335C1.9029 13.3029 2.0487 13.5559 2.34029 14.062L2.7516 14.7758C3.06267 15.3156 3.21823 15.5856 3.48288 15.6932C3.74753 15.8008 4.04684 15.7159 4.64546 15.546L5.66227 15.2596C6.04451 15.1714 6.44554 15.2215 6.79454 15.4008L7.07523 15.5628C7.37441 15.7545 7.60452 16.037 7.7319 16.3691L8.01022 17.2004C8.1932 17.7504 8.28469 18.0254 8.5025 18.1827C8.72032 18.34 9.00963 18.34 9.58826 18.34H10.5172C11.0959 18.34 11.3852 18.34 11.603 18.1827C11.8208 18.0254 11.9123 17.7504 12.0953 17.2004L12.3736 16.3691C12.501 16.037 12.7311 15.7545 13.0303 15.5628L13.311 15.4008C13.66 15.2215 14.061 15.1714 14.4432 15.2596L15.4601 15.546C16.0587 15.7159 16.358 15.8008 16.6226 15.6932C16.8873 15.5856 17.0428 15.3156 17.3539 14.7758L17.3539 14.7758L17.7652 14.062C18.0568 13.5559 18.2026 13.3029 18.1743 13.0335C18.146 12.7642 17.9508 12.5471 17.5605 12.113L16.7013 11.1524C16.4912 10.8865 16.3422 10.4233 16.3422 10.0065C16.3422 9.59001 16.4913 9.1267 16.7013 8.86085L17.5605 7.90026C17.9508 7.46614 18.146 7.24909 18.1743 6.97974C18.2026 6.71039 18.0568 6.45737 17.7652 5.95132Z" stroke="#DD7700" stroke-width="1.5" stroke-linecap="round"/>
<path d="M12.9329 10.0002C12.9329 11.611 11.6271 12.9168 10.0163 12.9168C8.40545 12.9168 7.09961 11.611 7.09961 10.0002C7.09961 8.38933 8.40545 7.0835 10.0163 7.0835C11.6271 7.0835 12.9329 8.38933 12.9329 10.0002Z" stroke="#DD7700" stroke-width="1.5"/>
</svg>
