<svg width="20" height="20" viewBox="0 0 20 20" fill="none" xmlns="http://www.w3.org/2000/svg">
<path d="M9.16667 9.16667L5 5" stroke="#2F80ED" stroke-width="1.5"/>
<path d="M4.16602 6.24984L6.24935 4.1665L3.74935 2.9165L2.91602 3.74984L4.16602 6.24984Z" stroke="#2F80ED" stroke-width="1.5" stroke-linejoin="round"/>
<path d="M16.6457 7.47906C17.4882 6.63659 17.7075 5.40697 17.3038 4.3629L16.1188 5.5479H14.4521V3.88123L15.6371 2.69623C14.593 2.29246 13.3634 2.5118 12.5209 3.35427C11.6782 4.19706 11.459 5.42729 11.8633 6.47161L6.47161 11.8633C5.42729 11.459 4.19706 11.6782 3.35427 12.5209C2.5118 13.3634 2.29246 14.593 2.69623 15.6371L3.88123 14.4521H5.5479L5.5479 16.1188L4.3629 17.3038C5.40697 17.7075 6.63659 17.4882 7.47906 16.6457C8.32121 15.8036 8.54071 14.5746 8.13756 13.5307L13.5307 8.13756C14.5746 8.54071 15.8036 8.32121 16.6457 7.47906Z" stroke="#2F80ED" stroke-width="1.5" stroke-linejoin="round"/>
<path d="M9.8301 12.0832L14.5002 16.7532C14.94 17.1931 15.6531 17.1931 16.093 16.7532L16.7527 16.0935C17.1926 15.6536 17.1926 14.9405 16.7527 14.5007L12.0827 9.83058" stroke="#2F80ED" stroke-width="1.5" stroke-linejoin="round"/>
</svg>
