<svg width="20" height="20" viewBox="0 0 20 20" fill="none" xmlns="http://www.w3.org/2000/svg">
<path d="M5.22565 14.2082C5.53909 14.5698 5.7418 15.014 5.80956 15.4877C5.87733 15.9615 5.80729 16.4447 5.60781 16.8797C5.40833 17.3147 5.08784 17.683 4.68463 17.9408C4.28142 18.1985 3.81253 18.3348 3.33398 18.3332C1.95065 18.3332 0.833984 17.2165 0.833984 15.8332C0.833984 14.4499 1.95065 13.3332 3.33398 13.3332C3.48398 13.3332 3.63398 13.3332 3.77565 13.3749L6.33398 8.90818L4.88398 8.08318L8.29232 7.14985L9.22565 10.5582L7.77565 9.73318L5.22565 14.2082ZM16.6673 13.3332C15.584 13.3332 14.6673 14.0332 14.3173 14.9999H9.16732V13.3332L6.66732 15.8332L9.16732 18.3332V16.6665H14.3173C14.6673 17.6332 15.584 18.3332 16.6673 18.3332C18.0507 18.3332 19.1673 17.2165 19.1673 15.8332C19.1673 14.4499 18.0507 13.3332 16.6673 13.3332ZM10.0007 6.66652C10.1507 6.66652 10.3007 6.66652 10.4423 6.62485L13.0007 11.0915L11.5507 11.9165L14.959 12.8499L15.8923 9.44152L14.4423 10.2665L11.8923 5.79152C12.2058 5.4299 12.4085 4.98569 12.4762 4.51196C12.544 4.03823 12.474 3.55501 12.2745 3.12002C12.075 2.68503 11.7545 2.31666 11.3513 2.05891C10.9481 1.80117 10.4792 1.66494 10.0007 1.66652C8.61732 1.66652 7.50065 2.78318 7.50065 4.16652C7.50065 5.54985 8.61732 6.66652 10.0007 6.66652Z" fill="#BA1A1A"/>
</svg>
