<svg width="20" height="20" viewBox="0 0 20 20" fill="none" xmlns="http://www.w3.org/2000/svg">
<ellipse cx="12.9167" cy="9.16667" rx="5.41667" ry="1.66667" stroke="#00A45F" stroke-width="1.5"/>
<path d="M18.3333 12.9165C18.3333 13.837 15.9082 14.5832 12.9167 14.5832C9.92512 14.5832 7.5 13.837 7.5 12.9165" stroke="#00A45F" stroke-width="1.5"/>
<path d="M18.3333 9.1665V16.4998C18.3333 17.5124 15.9082 18.3332 12.9167 18.3332C9.92512 18.3332 7.5 17.5124 7.5 16.4998V9.1665" stroke="#00A45F" stroke-width="1.5"/>
<ellipse cx="7.08268" cy="3.33317" rx="5.41667" ry="1.66667" stroke="#00A45F" stroke-width="1.5"/>
<path d="M4.99935 9.16667C3.42284 8.97481 1.97428 8.47878 1.66602 7.5M4.99935 13.3333C3.42284 13.1415 1.97428 12.6455 1.66602 11.6667" stroke="#00A45F" stroke-width="1.5" stroke-linecap="round"/>
<path d="M4.99935 17.5002C3.42284 17.3083 1.97428 16.8123 1.66602 15.8335L1.66602 3.3335" stroke="#00A45F" stroke-width="1.5" stroke-linecap="round"/>
<path d="M12.5 5.00016V3.3335" stroke="#00A45F" stroke-width="1.5" stroke-linecap="round"/>
</svg>
