<svg xmlns="http://www.w3.org/2000/svg" width="32" height="32" viewBox="0 0 32 32"><g fill="none"><g clip-path="url(#f355idh)"><path fill="url(#f355id0)" d="M15.999 29.998c9.334 0 13.999-6.268 13.999-14c0-7.73-4.665-13.998-14-13.998C6.665 2 2 8.268 2 15.999s4.664 13.999 13.999 13.999"/><path fill="url(#f355id1)" d="M15.999 29.998c9.334 0 13.999-6.268 13.999-14c0-7.73-4.665-13.998-14-13.998C6.665 2 2 8.268 2 15.999s4.664 13.999 13.999 13.999"/><path fill="url(#f355id2)" d="M15.999 29.998c9.334 0 13.999-6.268 13.999-14c0-7.73-4.665-13.998-14-13.998C6.665 2 2 8.268 2 15.999s4.664 13.999 13.999 13.999"/><path fill="url(#f355id3)" fill-opacity="0.6" d="M15.999 29.998c9.334 0 13.999-6.268 13.999-14c0-7.73-4.665-13.998-14-13.998C6.665 2 2 8.268 2 15.999s4.664 13.999 13.999 13.999"/><path fill="url(#f355id4)" d="M15.999 29.998c9.334 0 13.999-6.268 13.999-14c0-7.73-4.665-13.998-14-13.998C6.665 2 2 8.268 2 15.999s4.664 13.999 13.999 13.999"/><path fill="url(#f355id5)" d="M15.999 29.998c9.334 0 13.999-6.268 13.999-14c0-7.73-4.665-13.998-14-13.998C6.665 2 2 8.268 2 15.999s4.664 13.999 13.999 13.999"/><path fill="url(#f355id6)" d="M15.999 29.998c9.334 0 13.999-6.268 13.999-14c0-7.73-4.665-13.998-14-13.998C6.665 2 2 8.268 2 15.999s4.664 13.999 13.999 13.999"/><path fill="url(#f355id7)" d="M15.999 29.998c9.334 0 13.999-6.268 13.999-14c0-7.73-4.665-13.998-14-13.998C6.665 2 2 8.268 2 15.999s4.664 13.999 13.999 13.999"/><circle cx="9.017" cy="16.42" r="4.673" fill="url(#f355id8)"/><circle cx="19.244" cy="16.943" r="4.244" fill="url(#f355id9)"/><path fill="#fff" d="M10.42 19.224a4.206 4.206 0 1 0 0-8.411a4.206 4.206 0 0 0 0 8.411m11.148.077a4.244 4.244 0 1 0 0-8.489a4.244 4.244 0 0 0 0 8.49"/><path fill="url(#f355idc)" d="M11 18a3 3 0 1 0 0-6a3 3 0 0 0 0 6"/><path fill="url(#f355idd)" d="M21 18a3 3 0 1 0 0-6a3 3 0 0 0 0 6"/><path stroke="url(#f355ide)" stroke-linecap="round" stroke-linejoin="round" d="M6.5 10.5c.333-1 1.6-3 4-3"/><path stroke="url(#f355idf)" stroke-linecap="round" stroke-linejoin="round" d="M25.5 10.5c-.333-1-1.6-3-4-3"/><path stroke="url(#f355idg)" stroke-linecap="round" stroke-width="2" d="M13 23s1-1 3-1s3 1 3 1"/><rect width="4" height="7" x="5" y="20" fill="url(#f355ida)" rx="2"/><rect width="4" height="7" x="6" y="19" fill="url(#f355idb)" rx="2"/></g><defs><radialGradient id="f355id0" cx="0" cy="0" r="1" gradientTransform="rotate(132.839 10.786 10.065)scale(37.5033)" gradientUnits="userSpaceOnUse"><stop stop-color="#fff478"/><stop offset=".475" stop-color="#ffb02e"/><stop offset="1" stop-color="#f70a8d"/></radialGradient><radialGradient id="f355id1" cx="0" cy="0" r="1" gradientTransform="rotate(131.878 10.74 10.193)scale(38.9487)" gradientUnits="userSpaceOnUse"><stop stop-color="#fff478"/><stop offset=".475" stop-color="#ffb02e"/><stop offset="1" stop-color="#f70a8d"/></radialGradient><radialGradient id="f355id2" cx="0" cy="0" r="1" gradientTransform="rotate(101.31 2.876 12.808)scale(17.8466 22.8581)" gradientUnits="userSpaceOnUse"><stop offset=".788" stop-color="#f59639" stop-opacity="0"/><stop offset=".973" stop-color="#ff7dce"/></radialGradient><radialGradient id="f355id3" cx="0" cy="0" r="1" gradientTransform="matrix(-29 29 -29 -29 18 14)" gradientUnits="userSpaceOnUse"><stop offset=".315" stop-opacity="0"/><stop offset="1"/></radialGradient><radialGradient id="f355id4" cx="0" cy="0" r="1" gradientTransform="rotate(77.692 -2.555 18.434)scale(28.1469)" gradientUnits="userSpaceOnUse"><stop offset=".508" stop-color="#7d6133" stop-opacity="0"/><stop offset="1" stop-color="#715b32"/></radialGradient><radialGradient id="f355id5" cx="0" cy="0" r="1" gradientTransform="matrix(7.5 10.99996 -7.97335 5.4364 16.5 16.5)" gradientUnits="userSpaceOnUse"><stop stop-color="#ffb849"/><stop offset="1" stop-color="#ffb847" stop-opacity="0"/></radialGradient><radialGradient id="f355id6" cx="0" cy="0" r="1" gradientTransform="matrix(11.49998 2 -2 11.49998 20.5 18)" gradientUnits="userSpaceOnUse"><stop stop-color="#ffa64b"/><stop offset=".9" stop-color="#ffae46" stop-opacity="0"/></radialGradient><radialGradient id="f355id7" cx="0" cy="0" r="1" gradientTransform="rotate(43.971 -9.827 29.173)scale(59.0529)" gradientUnits="userSpaceOnUse"><stop offset=".185" stop-opacity="0"/><stop offset="1" stop-opacity="0.4"/></radialGradient><radialGradient id="f355id8" cx="0" cy="0" r="1" gradientTransform="rotate(135 3.678 9.013)scale(9.10579 4.71285)" gradientUnits="userSpaceOnUse"><stop stop-color="#392108"/><stop offset="1" stop-color="#c87928" stop-opacity="0"/></radialGradient><radialGradient id="f355id9" cx="0" cy="0" r="1" gradientTransform="rotate(135 8.447 11.49)scale(7.66968 4.32966)" gradientUnits="userSpaceOnUse"><stop stop-color="#392108"/><stop offset="1" stop-color="#c87928" stop-opacity="0"/></radialGradient><radialGradient id="f355ida" cx="0" cy="0" r="1" gradientTransform="matrix(-1.49999 5.5 -2.42653 -.66177 7.75 21.25)" gradientUnits="userSpaceOnUse"><stop stop-color="#392108"/><stop offset="1" stop-color="#c87928" stop-opacity="0"/></radialGradient><radialGradient id="f355idb" cx="0" cy="0" r="1" gradientTransform="rotate(105.285 -2.707 13.222)scale(7.58655 2.95188)" gradientUnits="userSpaceOnUse"><stop stop-color="#5c98ff"/><stop offset=".806" stop-color="#3d5bf1"/><stop offset=".962" stop-color="#6065ca"/></radialGradient><linearGradient id="f355idc" x1="16.5" x2="15.5" y1="11" y2="18" gradientUnits="userSpaceOnUse"><stop stop-color="#553b3e"/><stop offset="1" stop-color="#3d2432"/></linearGradient><linearGradient id="f355idd" x1="16.5" x2="15.5" y1="11" y2="18" gradientUnits="userSpaceOnUse"><stop stop-color="#553b3e"/><stop offset="1" stop-color="#3d2432"/></linearGradient><linearGradient id="f355ide" x1="6.833" x2="6.833" y1="11.4" y2="9.6" gradientUnits="userSpaceOnUse"><stop offset=".03" stop-color="#524049"/><stop offset="1" stop-color="#4a2c42"/></linearGradient><linearGradient id="f355idf" x1="25.167" x2="25.167" y1="11.4" y2="9.6" gradientUnits="userSpaceOnUse"><stop offset=".03" stop-color="#524049"/><stop offset="1" stop-color="#4a2c42"/></linearGradient><linearGradient id="f355idg" x1="16" x2="16" y1="20" y2="22" gradientUnits="userSpaceOnUse"><stop stop-color="#4f3c43"/><stop offset="1" stop-color="#512756"/></linearGradient><clipPath id="f355idh"><path fill="#fff" d="M0 0h32v32H0z"/></clipPath></defs></g></svg>